<?xml version="1.0" encoding="UTF-8"?><svg id="Capa_1" xmlns="http://www.w3.org/2000/svg" viewBox="0 0 801 784.71"><defs><style>.cls-1{fill:#faff4a;stroke:#000;stroke-miterlimit:10;}</style></defs><path class="cls-1" d="M557.88,292.3c-23.45-84.14-124.63-107.2-200.03-96.71-70.84,9.86-145.78,53.58-156.05,131.48-4.55,34.51-4.49,74.61,18.89,103.24,32.44,39.73,87.86,62.38,93.1,118.06-2.44,.1-4.25,1.48-5.11,3.51-28.38,7.27-31.77,42.02-8.91,64.32-13.87,13.98-22.4,32.94-4.97,49.15,1.88,1.75,4.08,3.13,6.21,4.59-35.9,35.79,3.94,56.35,43.1,65.04,3.03,28.8,25.88,47.67,54.37,49.17,26.66,1.41,57.29-20.43,60.05-48.11,11.35-2.87,21.56-7.34,28.67-14.92,12.33-13.14,17.29-46.14,3.94-61.62,18.33-13.87,15.11-36.92-1.84-49.41,10.56-6.93,15.09-16.09,4.89-27.85-8.8-10.14-22.59-15.79-36.52-19.06,.01-.47,.15-.89,.08-1.39-8.38-61.47,54.85-111.87,86.43-157.8,23.89-34.77,24.63-72.48,13.7-111.69Zm-155.69,477.8c-23.5,1.99-40.3-13.26-48.54-33.25,11.2,1.97,21.84,3,29.99,3.07,15.6,.13,37.65,1.46,58.29-.87-7.99,16.53-17.23,29.15-39.75,31.05Zm-18.54-45.15c-28.86-.25-105.58-6.66-73.35-49.79,23.86,10.97,56.52,10.48,79.8,9.82,27.97-.79,61.6-3.98,87.82-17.38,41.51,55.13-64.04,57.6-94.27,57.34Zm91.21-72.92c-.08,.03-.13,.08-.21,.11-1.48,.83-2.79,1.65-4.57,2.51-22.75,11.02-50.45,13.85-75.29,15.35-24.72,1.49-50.45,.39-74.2-7.07-25.58-8.03-22.97-23.46-11.23-40.11,11.01,5.32,24.45,5.83,36.26,6.62,26.73,1.79,53.84,.41,80.52-1.56,8.33-.61,31.21-4.02,49.31-10.97,13.52,16.35,17.56,24.85-.59,35.14Zm2.8-63.48c15.4,8.79-34.86,21.64-39.81,22.16-26.38,2.83-53.08,3.57-79.59,3.13-11.96-.2-24.01-.87-35.74-3.24-27.7-5.61-31.38-43.53,1.11-45.35,1.65-.1,2.9-.67,3.97-1.42,33.45,5.45,67.75,7.71,101.33,11.12,16.93,1.72,33.82,5.08,48.73,13.59Zm-85.69-33.06c-6.02-.56-12.04-1.15-18.06-1.71,.02-.09,.02-.21,.04-.31,.21-.65,.3-1.3,.26-1.96,3.24-19.64-4.67-51.22-11.22-69.53-7.04-19.69-17.85-38.18-27.76-56.5-2.42-4.46-4.64-9.76-6.91-15.26,16.55-22.06,47.02-28.24,80.76-33.06,1.18-.17,2.47-.34,3.83-.53-19.28,56.77-21.76,119.47-20.95,178.86Zm50.02,4.87c-2.03-.27-4.06-.52-6-.71-10.04-1.01-20.08-1.91-30.12-2.85,1.8-57.73,4.09-116.05,20.69-171.79,.48-1.6,1.97-5.65,4.1-11.13,20.69-3.91,44.3-11.9,43.82-32.58-.16-6.75-8.38-8.33-12.01-3.25-6.25,8.77-14.93,14.32-24.7,18.32,10.73-25.59,25.97-58.41,31.63-57.24,7.09,1.46,10.43-7.22,4.77-11.31-22.3-16.1-46.11,51.86-51.08,62.82-1.71,3.79-3.06,7.72-4.61,11.57-19.54,4.14-40.89,5.28-58.11,10.5-16.21,4.92-28.82,13.22-37.83,23.98-3.6-7.92-7.66-15.31-12.95-20.3-3.32-3.14-7.96-1.45-9.49,2.51-4.17,10.78,4.74,23.24,9.47,32.71,.64,1.27,1.35,2.51,2,3.78-4.14,11.23-5.52,24.04-3.6,38.22,.59,4.33,7.22,3.05,7.35-1,.29-8.85,1.61-16.47,3.64-23.25,7.79,14.51,15.73,28.93,22.92,43.76,7.72,15.94,10.22,30.24,12.6,47.32,1.29,9.26,1.39,23.1,6.44,32.11-11.39-1.06-22.78-2.1-34.16-3.23,.39-46.71-29.86-70.52-64.83-99.52-100.12-83.01-25.06-211.75,81.88-236.13,56.7-12.93,122.17-2.43,167.43,34.37,70.93,57.68,30.29,137.29-14.11,191.26-27.86,33.88-58.6,74.76-55.15,121.05Z"/><path class="cls-1" d="M212.32,482.72c-9.9,11.65-17.71,25.25-26.72,37.61-8.67,11.88-22.1,22.07-28.94,34.96-1.97,3.7,1.31,9.32,5.87,7.64,12.72-4.69,20.46-18.51,28.04-29.1,10.27-14.35,21.26-29.81,28.38-46,1.77-4.03-3.27-9.07-6.63-5.12Z"/><path class="cls-1" d="M130.62,345.94c-15.37-10.03-38.36-7.95-56.07-7.9-23.54,.06-48.11,2.49-70.99,8.13-4.67,1.15-3.76,8.82,1.15,8.48,20.6-1.46,40.99-3.43,61.68-3.52,20.98-.1,42.53,6.88,63.03,4.1,4.72-.64,4.45-7.17,1.21-9.28Z"/><path class="cls-1" d="M231.78,167.22c-8.15-11.78-22.72-18.43-34.46-26.31-14.98-10.06-30-20.66-45.99-29.03-4.22-2.2-9.29,3.56-5.3,6.88,12.73,10.58,26.81,19.57,40.34,29.11,12.6,8.9,24.89,22.13,39.62,26.9,4.14,1.35,8.37-3.84,5.8-7.55Z"/><path class="cls-1" d="M379.99,5.9c-1.01-5.51-6.88-6.91-10.99-3.7-6.84,5.33-4.76,17.49-4.78,24.95-.05,29.48-.85,60.43,3.37,89.66,.6,4.13,7.75,4.15,8.32,0,2.69-19.56,1.22-39.97,1.49-59.67,.16-11.19,.37-22.4,1.06-33.57,.23-3.79,1.29-7.69,1.32-11.45,.02-1.62-.02-2.6-.09-3.28,.32-.94,.48-1.95,.3-2.93Z"/><path class="cls-1" d="M613.64,57.28c-11.24-12.68-26.86,13.74-31.67,20.69-7.3,10.54-14.07,21.45-21.16,32.13-5.36,8.08-15.81,17.37-18.41,26.62-.72,2.56,.38,6.14,2.98,7.31,.19,.09,.39,.18,.58,.26,2.65,1.19,5.6,1.22,7.78-1,2.23-2.27,3.34-5.02,6.43-6.35,2.37-1.02,2.23-3.25,1.06-4.92,2.25-2.34,4.55-4.63,6-6.59,5.52-7.45,10.66-15.18,15.87-22.85,5.06-7.44,10.14-14.87,15.49-22.11,2.21-2.99,4.6-5.82,7.11-8.56,1.37-1.49,6.58-4.57,3.73-4.45,5.36-.21,7.7-6.26,4.22-10.18Z"/><path class="cls-1" d="M792.95,306.4c-33.25,1.12-66.47,1.94-99.68,4.02-11.26,.71-45.46-2.05-51.29,11.84-1.46,3.48,3.78,6.14,6.15,3.58,.7-.75,20.34-.44,22.6-.58,13.85-.89,27.73-1.42,41.6-1.91,26.79-.93,53.81-2.06,80.61-1.32,10.27,.28,9.86-16.73,0-15.63Z"/><path class="cls-1" d="M658.62,499.7c-4.27-5.46-12.85-7.58-18.84-10.65-9.54-4.89-18.87-10.2-28.22-15.44-9.96-5.56-29.93-21.74-42.01-17.8-2.25,.74-2.65,3.14-1.29,4.89,8.69,11.08,28.49,18.5,40.52,25.9,11.58,7.12,32.74,25.82,47.31,22.7,4.66-1,4.97-6.48,2.53-9.6Z"/></svg>